# xmcd
#
# Track frame offsets: 
#        150
#        19282
#        35942
#        56085
#        79210
#        99607
#        117265
#        136275
#        154872
#        174022
#        196250
#        214527
#        234612
#
# Disc length: 3531 seconds
#
# Revision: 25
# Processed by: cddbd v1.5.2PL0 Copyright (c) Steve Scherf et al.
# Submitted via: ExactAudioCopyFreeDBPlugin 1.0
#
DISCID=b00dc90d
DTITLE=Lionel Richie - Renaissance [Island 548 223-2]
DYEAR=2000
DGENRE=Funk, Soul, RnB-Swing, Pop
TTITLE0=Angel (Metro Mix Album Version)
TTITLE1=Cinderella
TTITLE2=Tender Heart
TTITLE3=Dance The Night Away
TTITLE4=Tonight
TTITLE5=How Long
TTITLE6=Don't You Ever Go Away
TTITLE7=Wasted Time
TTITLE8=Piece Of My Heart
TTITLE9=It May Be The Water
TTITLE10=Here Is My Heart
TTITLE11=Don't Stop The Music
TTITLE12=Angel (Boogieman Remix-Extended)
EXTD=YEAR: 2000
EXTT0=(2000 The Island Def Jam Music Group)
EXTT1=(2000 The Island Def Jam Music Group)
EXTT2=(2000 The Island Def Jam Music Group)
EXTT3=(2000 The Island Def Jam Music Group)
EXTT4=(2000 The Island Def Jam Music Group)
EXTT5=(2000 The Island Def Jam Music Group)
EXTT6=(2000 The Island Def Jam Music Group)
EXTT7=(2000 The Island Def Jam Music Group)
EXTT8=(2000 The Island Def Jam Music Group)
EXTT9=(2000 The Island Def Jam Music Group)
EXTT10=(2000 The Island Def Jam Music Group)
EXTT11=(2000 The Island Def Jam Music Group)
EXTT12=(2000 The Island Def Jam Music Group)
PLAYORDER=
